<svg width="15" height="17" viewBox="0 0 15 17" fill="none" xmlns="http://www.w3.org/2000/svg">
<path d="M10.958 13.9656C10.4441 13.9656 9.94179 13.8131 9.51451 13.5274C9.08722 13.2418 8.75419 12.8357 8.55753 12.3606C8.36087 11.8855 8.30941 11.3627 8.40967 10.8584C8.50992 10.354 8.75739 9.89076 9.12077 9.52715C9.48415 9.16353 9.94712 8.91591 10.4511 8.81558C10.9552 8.71526 11.4776 8.76675 11.9524 8.96354C12.4271 9.16033 12.8329 9.49358 13.1185 9.92114C13.404 10.3487 13.5563 10.8514 13.5563 11.3656C13.5556 12.055 13.2816 12.7158 12.7945 13.2033C12.3074 13.6907 11.6469 13.9649 10.958 13.9656ZM10.958 9.66997C10.6229 9.66997 10.2953 9.76942 10.0166 9.95574C9.73794 10.1421 9.52075 10.4069 9.39249 10.7167C9.26423 11.0266 9.23068 11.3675 9.29606 11.6964C9.36144 12.0254 9.52283 12.3275 9.75982 12.5646C9.99681 12.8018 10.2987 12.9633 10.6275 13.0287C10.9562 13.0941 11.2969 13.0605 11.6065 12.9322C11.9162 12.8039 12.1808 12.5865 12.367 12.3077C12.5532 12.0288 12.6526 11.701 12.6526 11.3656C12.6521 10.9161 12.4734 10.4851 12.1557 10.1672C11.838 9.84931 11.4073 9.6705 10.958 9.66997Z" fill="#1D2E5B"/>
<path d="M3.50211 13.9656C2.98822 13.9656 2.48586 13.8131 2.05857 13.5274C1.63128 13.2418 1.29825 12.8357 1.10159 12.3606C0.904934 11.8855 0.853479 11.3627 0.953735 10.8584C1.05399 10.354 1.30146 9.89076 1.66484 9.52715C2.02821 9.16353 2.49119 8.91591 2.99521 8.81558C3.49923 8.71526 4.02166 8.76675 4.49644 8.96354C4.97122 9.16033 5.37702 9.49358 5.66252 9.92114C5.94803 10.3487 6.10042 10.8514 6.10042 11.3656C6.09967 12.055 5.82568 12.7158 5.33856 13.2033C4.85145 13.6907 4.191 13.9649 3.50211 13.9656ZM3.50211 9.66997C3.16696 9.66997 2.83934 9.76942 2.56067 9.95574C2.28201 10.1421 2.06481 10.4069 1.93656 10.7167C1.8083 11.0266 1.77474 11.3675 1.84013 11.6964C1.90551 12.0254 2.0669 12.3275 2.30389 12.5646C2.54087 12.8018 2.84281 12.9633 3.17152 13.0287C3.50023 13.0941 3.84095 13.0605 4.15059 12.9322C4.46022 12.8039 4.72488 12.5865 4.91108 12.3077C5.09728 12.0288 5.19666 11.701 5.19666 11.3656C5.19614 10.9161 5.01744 10.4851 4.69976 10.1672C4.38208 9.84931 3.95137 9.6705 3.50211 9.66997Z" fill="#1D2E5B"/>
<path d="M9.03766 4.25003C9.15669 4.25052 9.27463 4.22326 9.38465 4.16983C9.49467 4.11639 9.59459 4.03785 9.67863 3.93874C9.76267 3.83963 9.82917 3.72192 9.87427 3.59241C9.91938 3.46289 9.9422 3.32416 9.94141 3.18421C9.94273 3.04497 9.92042 2.90681 9.87579 2.77783C9.83116 2.64884 9.7651 2.53161 9.68147 2.43299C9.59785 2.33437 9.49834 2.25634 9.38877 2.20346C9.27919 2.15058 9.16175 2.12392 9.0433 2.12503C8.92462 2.1246 8.80703 2.15165 8.69724 2.20464C8.58745 2.25763 8.48761 2.33553 8.40342 2.43388C8.31924 2.53224 8.25236 2.64912 8.2066 2.77786C8.16084 2.90661 8.13709 3.04468 8.13672 3.18421C8.13635 3.32374 8.15936 3.46199 8.20444 3.59107C8.24951 3.72014 8.31577 3.83752 8.39943 3.93649C8.48309 4.03546 8.58251 4.11409 8.69202 4.16788C8.80153 4.22168 8.91897 4.2496 9.03766 4.25003Z" fill="#1D2E5B"/>
<path d="M10.3805 6.37507H9.14463C9.12435 6.37508 9.10445 6.36867 9.08701 6.35652C9.06957 6.34437 9.05523 6.32692 9.04549 6.30601L8.14908 4.37459C8.08592 4.23105 7.9949 4.10702 7.88339 4.01253C7.77187 3.91804 7.643 3.85574 7.50721 3.83068C7.37141 3.80563 7.2325 3.81852 7.10173 3.8683C6.97096 3.91809 6.85199 4.00338 6.75447 4.11726L4.78145 6.45476C4.6157 6.65366 4.52161 6.92008 4.5188 7.19851C4.5188 7.77625 4.87465 7.98211 5.04128 8.09832C5.84619 8.64351 6.41302 9.04228 6.72397 9.26375C6.7405 9.27558 6.75417 9.2922 6.76366 9.31203C6.77316 9.33186 6.77816 9.35422 6.77819 9.37697V11.672C6.77819 11.9578 6.96516 12.2032 7.20832 12.2175C7.26938 12.221 7.33039 12.2098 7.38767 12.1848C7.44496 12.1597 7.49732 12.1212 7.5416 12.0717C7.58587 12.0222 7.62114 11.9626 7.64526 11.8965C7.66939 11.8305 7.68187 11.7594 7.68195 11.6876V8.83211C7.68199 8.74777 7.66495 8.66464 7.63225 8.58958C7.59954 8.51452 7.5521 8.4497 7.49386 8.40047L6.44889 7.51693C6.43577 7.5059 6.42481 7.49169 6.41676 7.47526C6.4087 7.45884 6.40373 7.44057 6.40218 7.4217C6.40063 7.40282 6.40253 7.38378 6.40776 7.36584C6.41299 7.34791 6.42143 7.33149 6.43251 7.31771L7.61869 5.83054C7.63085 5.81524 7.64592 5.80354 7.66266 5.79639C7.6794 5.78924 7.69734 5.78685 7.71502 5.78941C7.7327 5.79196 7.74962 5.7994 7.76439 5.81111C7.77916 5.82282 7.79136 5.83846 7.8 5.85677L8.41625 7.16431C8.45542 7.2472 8.51274 7.31625 8.58227 7.3643C8.6518 7.41235 8.731 7.43765 8.81165 7.43757H10.3932C10.4544 7.43766 10.515 7.42312 10.5713 7.39484C10.6276 7.36655 10.6784 7.32512 10.7207 7.27305C10.7629 7.22098 10.7958 7.15935 10.8172 7.09192C10.8385 7.02448 10.848 6.95264 10.8451 6.88076C10.8332 6.59488 10.6237 6.37507 10.3805 6.37507Z" fill="#1D2E5B"/>
</svg>
