<svg width="14" height="16" viewBox="0 0 14 16" fill="none" xmlns="http://www.w3.org/2000/svg">
<g clip-path="url(#clip0)">
<path d="M11.3455 0.801848C10.8525 0.93453 10.3572 1.06784 10.1697 1.41701L8.71437 4.48876L1.05839 6.54938L0.738368 7.52886L6.57394 8.04362L5.55374 10.6995L3.33193 11.2975L2.76427 12.3437L4.36059 12.5087L4.53353 13.3555C4.61188 13.6554 4.89628 13.8524 5.14161 13.7864L5.88221 13.5871L6.72106 15.148L7.28872 14.1019L6.76989 11.5615L8.39818 9.33652L11.3954 15.0819L12.0209 14.319L10.2337 5.56782L11.9945 2.71256C12.1843 2.36276 12.0692 1.79911 11.9535 1.23282C11.8962 0.952315 11.5908 0.735819 11.3455 0.801848Z" fill="#1D2E5B"/>
</g>
<defs>
<clipPath id="clip0">
<rect width="14" height="16" fill="white"/>
</clipPath>
</defs>
</svg>
