<svg width="18" height="18" viewBox="0 0 18 18" fill="none" xmlns="http://www.w3.org/2000/svg">
<path d="M12.9601 1.80064C13.8188 1.80254 14.6418 2.14451 15.249 2.75172C15.8562 3.35892 16.1982 4.18192 16.2001 5.04064V12.9606C16.1982 13.8194 15.8562 14.6424 15.249 15.2496C14.6418 15.8568 13.8188 16.1987 12.9601 16.2006H5.04009C4.18262 16.1968 3.36147 15.854 2.75581 15.247C2.15016 14.64 1.80919 13.8181 1.80729 12.9606V5.04064C1.80919 4.18317 2.15016 3.36125 2.75581 2.75425C3.36147 2.14725 4.18262 1.80444 5.04009 1.80064H12.9601ZM12.9601 0.720642H5.04009C3.89436 0.720642 2.79555 1.17578 1.98539 1.98594C1.17523 2.7961 0.720093 3.89491 0.720093 5.04064L0.720093 12.9606C0.720093 14.1064 1.17523 15.2052 1.98539 16.0153C2.79555 16.8255 3.89436 17.2806 5.04009 17.2806H12.9601C14.1058 17.2806 15.2046 16.8255 16.0148 16.0153C16.8249 15.2052 17.2801 14.1064 17.2801 12.9606V5.04064C17.2801 3.89491 16.8249 2.7961 16.0148 1.98594C15.2046 1.17578 14.1058 0.720642 12.9601 0.720642V0.720642Z" fill="#192144"/>
<path d="M9.00703 5.81731C9.63787 5.81731 10.2545 6.00438 10.7791 6.35486C11.3036 6.70533 11.7124 7.20348 11.9538 7.78631C12.1953 8.36913 12.2584 9.01045 12.1353 9.62917C12.0123 10.2479 11.7085 10.8162 11.2624 11.2623C10.8163 11.7084 10.248 12.0122 9.62929 12.1352C9.01057 12.2583 8.36924 12.1951 7.78642 11.9537C7.2036 11.7123 6.70545 11.3035 6.35497 10.779C6.00449 10.2544 5.81743 9.63776 5.81743 9.00691C5.81648 8.58778 5.89833 8.17259 6.05829 7.78518C6.21824 7.39777 6.45315 7.04578 6.74952 6.74941C7.04589 6.45304 7.39789 6.21813 7.7853 6.05817C8.17271 5.89822 8.5879 5.81636 9.00703 5.81731V5.81731ZM9.00703 4.73731C8.16228 4.73589 7.33609 4.98508 6.63301 5.45337C5.92993 5.92165 5.38156 6.58797 5.0573 7.36801C4.73304 8.14805 4.64746 9.00675 4.81139 9.83545C4.97532 10.6641 5.38139 11.4256 5.97822 12.0234C6.57504 12.6213 7.3358 13.0286 8.16422 13.1939C8.99264 13.3593 9.85148 13.2751 10.6321 12.9522C11.4127 12.6293 12.0799 12.082 12.5494 11.3797C13.0188 10.6774 13.2694 9.85167 13.2694 9.00691C13.2704 8.44656 13.1608 7.89152 12.947 7.37355C12.7333 6.85558 12.4194 6.38485 12.0236 5.98828C11.6277 5.59172 11.1575 5.27711 10.6398 5.06245C10.1222 4.8478 9.56738 4.73731 9.00703 4.73731Z" fill="#192144"/>
<path d="M13.4282 5.55942C13.961 5.55942 14.393 5.12747 14.393 4.59462C14.393 4.06178 13.961 3.62982 13.4282 3.62982C12.8953 3.62982 12.4634 4.06178 12.4634 4.59462C12.4634 5.12747 12.8953 5.55942 13.4282 5.55942Z" fill="#192144"/>
</svg>
