<svg width="14" height="16" viewBox="0 0 14 16" fill="none" xmlns="http://www.w3.org/2000/svg">
<g clip-path="url(#clip0)">
<path d="M3.50145 10.8571C3.50145 10.5417 3.3957 10.2723 3.1842 10.0491C2.9727 9.82589 2.71749 9.71429 2.41857 9.71429C2.11965 9.71429 1.86444 9.82589 1.65294 10.0491C1.44144 10.2723 1.33569 10.5417 1.33569 10.8571C1.33569 11.1726 1.44144 11.442 1.65294 11.6652C1.86444 11.8884 2.11965 12 2.41857 12C2.71749 12 2.9727 11.8884 3.1842 11.6652C3.3957 11.442 3.50145 11.1726 3.50145 10.8571ZM12.1645 10.8571C12.1645 10.5417 12.0588 10.2723 11.8473 10.0491C11.6358 9.82589 11.3806 9.71429 11.0816 9.71429C10.7827 9.71429 10.5275 9.82589 10.316 10.0491C10.1045 10.2723 9.99875 10.5417 9.99875 10.8571C9.99875 11.1726 10.1045 11.442 10.316 11.6652C10.5275 11.8884 10.7827 12 11.0816 12C11.3806 12 11.6358 11.8884 11.8473 11.6652C12.0588 11.442 12.1645 11.1726 12.1645 10.8571ZM11.7754 7.32143L11.1662 3.89286C11.138 3.75595 11.0746 3.64435 10.9759 3.55804C10.8772 3.47173 10.763 3.42857 10.6333 3.42857H2.86695C2.73723 3.42857 2.62302 3.47173 2.52432 3.55804C2.42562 3.64435 2.36217 3.75595 2.33397 3.89286L1.72485 7.32143C1.69665 7.5 1.73613 7.65774 1.84329 7.79464C1.95045 7.93155 2.08863 8 2.25783 8H11.2424C11.4116 8 11.5498 7.93155 11.6569 7.79464C11.7641 7.65774 11.8036 7.5 11.7754 7.32143ZM9.86339 1.85714C9.86339 1.7381 9.82391 1.6369 9.74495 1.55357C9.66599 1.47024 9.57011 1.42857 9.45731 1.42857H4.0429C3.9301 1.42857 3.83422 1.47024 3.75526 1.55357C3.6763 1.6369 3.63682 1.7381 3.63682 1.85714C3.63682 1.97619 3.6763 2.07738 3.75526 2.16071C3.83422 2.24405 3.9301 2.28571 4.0429 2.28571H9.45731C9.57011 2.28571 9.66599 2.24405 9.74495 2.16071C9.82391 2.07738 9.86339 1.97619 9.86339 1.85714ZM13.2474 8.33036V13.7143H12.1645V14.8571C12.1645 15.1726 12.0588 15.442 11.8473 15.6652C11.6358 15.8884 11.3806 16 11.0816 16C10.7827 16 10.5275 15.8884 10.316 15.6652C10.1045 15.442 9.99875 15.1726 9.99875 14.8571V13.7143H3.50145V14.8571C3.50145 15.1726 3.3957 15.442 3.1842 15.6652C2.9727 15.8884 2.71749 16 2.41857 16C2.11965 16 1.86444 15.8884 1.65294 15.6652C1.44144 15.442 1.33569 15.1726 1.33569 14.8571V13.7143H0.252808V8.33036C0.252808 7.66369 0.323308 7 0.464308 6.33929L1.33569 2.28571C1.38645 1.82143 1.6614 1.41369 2.16054 1.0625C2.65968 0.71131 3.30828 0.446429 4.10635 0.267857C4.90441 0.0892857 5.78566 0 6.7501 0C7.71454 0 8.5958 0.0892857 9.39386 0.267857C10.1919 0.446429 10.8405 0.71131 11.3397 1.0625C11.8388 1.41369 12.1138 1.82143 12.1645 2.28571L13.0528 6.33929C13.1825 6.94643 13.2474 7.61012 13.2474 8.33036Z" fill="#1D2E5B"/>
</g>
<defs>
<clipPath id="clip0">
<rect width="13" height="16" fill="white" transform="translate(0.25)"/>
</clipPath>
</defs>
</svg>
