<svg width="14" height="17" viewBox="0 0 14 17" fill="none" xmlns="http://www.w3.org/2000/svg">
<path d="M9.56128 4.24996C10.1663 4.24996 10.6567 3.6157 10.6567 2.83329C10.6567 2.05089 10.1663 1.41663 9.56128 1.41663C8.95628 1.41663 8.46582 2.05089 8.46582 2.83329C8.46582 3.6157 8.95628 4.24996 9.56128 4.24996Z" fill="#1D2E5B"/>
<path d="M8.89155 7.76969C9.01729 8.01199 9.19764 8.19839 9.40812 8.30356C9.6186 8.40874 9.84901 8.42761 10.0681 8.3576L11.8843 7.77039L11.6198 6.39623L9.80352 6.98344L9.0482 5.51931C8.88682 5.20663 8.63637 4.98917 8.35148 4.91439L6.24491 4.36898C6.00924 4.30781 5.76456 4.34869 5.54865 4.48529C5.33274 4.62189 5.15761 4.84662 5.05031 5.12477L4.14217 7.4736L5.12206 8.10756L6.0302 5.75802L7.10759 6.0371L4.32183 12.0416H1.89319V13.4583H4.32183C4.70414 13.4583 5.064 13.1948 5.26119 12.7705L6.31173 10.5067L9.14295 11.2391L10.1376 15.0988L11.1761 14.6504L10.182 10.7914C10.1206 10.5545 10.0121 10.3427 9.86728 10.1773C9.72246 10.0119 9.5465 9.89879 9.35712 9.84935L7.69256 9.41939L8.66314 7.32698L8.89155 7.76969Z" fill="#1D2E5B"/>
</svg>
